:SAMPLES-PER-SECOND 30
:FULLY-SPECIFIED
:DEGREES
198
root  -31.8434 39.2064 -14.0947 -44.3924 87.6533 -39.9447
RightUpLeg  -3.29161 -11.3954 3.71419
RightLeg  23.2247 5.68218 3.77125
RightFoot  -12.9795 -0.148117 -4.24485
RightToes  -8.14909e-010 0 -3.6325e-017
Spine  7.09471 1.24672 11.2031
Spine1  5.99179 2.84458 -0.227123
HEad  -8.37711 -14.7224 3.98881
LeftShoulder1  -0.534633 5.02259 -29.0299
LeftArm  -5.95382 21.5262 -31.6723
LeftForeArm  31.1295 -9.51964 -6.64335
LeftHand  -0.0230436 8.16312 0.849842
RightShoulder  -0.626485 -5.83327 20.042
RightArm  3.94744 -7.71665 12.6482
RightForeArm  46.873 26.5828 3.27164
RightHand  0.12689 3.25072 1.46541
LeftUpLeg  -18.0262 -0.934715 4.719
LeftLeg  56.3504 -1.17103 -1.38063
LeftFoot  0.408618 0.210867 -2.09669
LeftToes  1.648e-009 -9.21574e-011 2.55256e-011
199
root  -30.6685 39.3495 -13.9564 -19.1478 86.5856 -14.6155
RightUpLeg  -0.0709524 -10.1176 2.82939
RightLeg  20.9995 6.2221 4.00001
RightFoot  -13.8057 -0.171675 -3.64564
RightToes  -8.14909e-010 0 -3.6325e-017
Spine  6.72975 2.06652 11.7446
Spine1  6.23873 4.013 -2.48741
HEad  -7.3152 -15.4892 3.32295
LeftShoulder1  -0.53683 5.03465 -28.8881
LeftArm  -6.98845 22.7815 -30.7067
LeftForeArm  31.3087 -7.5805 -6.2103
LeftHand  -0.0522892 8.18077 -0.311995
RightShoulder  -0.657961 -5.89368 20.728
RightArm  1.01142 -4.82203 16.4254
RightForeArm  46.4769 27.3244 3.44409
RightHand  0.102469 1.68994 1.55543
LeftUpLeg  -19.8174 -1.40831 4.1194
LeftLeg  48.9377 -1.54743 -1.48643
LeftFoot  -1.04267 0.183165 -1.96554
LeftToes  1.648e-009 -9.21574e-011 2.55256e-011
200
root  -29.5306 39.4097 -13.8067 -12.0585 85.1802 -7.63489
RightUpLeg  2.81831 -9.0259 2.54261
RightLeg  18.7569 6.73156 3.82405
RightFoot  -14.508 -0.191809 -3.37048
RightToes  -8.14909e-010 0 -3.6325e-017
Spine  6.38513 2.82243 11.9704
Spine1  6.29314 4.84173 -3.8097
HEad  -5.63655 -15.3446 1.29399
LeftShoulder1  -0.580861 5.14582 -29.2059
LeftArm  -6.98375 23.7928 -29.8539
LeftForeArm  31.0039 -6.34534 -5.93262
LeftHand  -0.069563 8.18517 -0.953315
RightShoulder  -0.656633 -5.89013 20.6947
RightArm  -2.74022 -0.578372 20.8943
RightForeArm  44.3534 27.5342 3.58855
RightHand  0.0762709 2.88296 0.824952
LeftUpLeg  -20.9144 -1.45839 3.84476
LeftLeg  39.6593 -2.06501 -1.45939
LeftFoot  -1.15998 0.184994 -1.99112
LeftToes  1.648e-009 -9.21574e-011 2.55256e-011
201
root  -28.3701 39.4017 -13.6521 -9.08891 83.9751 -4.56445
RightUpLeg  5.99626 -8.42585 2.26821
RightLeg  16.5378 7.56467 3.50222
RightFoot  -15.2784 -0.230523 -3.701
RightToes  -8.14909e-010 0 -3.6325e-017
Spine  5.84334 3.36428 12.204
Spine1  6.68489 5.52774 -5.28781
HEad  -4.2516 -14.9727 -0.285252
LeftShoulder1  -0.593373 5.19669 -28.8754
LeftArm  -7.74457 25.071 -29.9438
LeftForeArm  31.8301 -5.9489 -5.37913
LeftHand  -0.101615 8.41057 -2.02336
RightShoulder  -0.765302 -6.23102 21.3296
RightArm  -5.91398 5.38466 24.5866
RightForeArm  41.9474 28.1666 3.84024
RightHand  0.128006 2.907 1.63982
LeftUpLeg  -20.6875 -1.23506 3.35907
LeftLeg  28.5766 -3.08003 -1.46261
LeftFoot  -0.755675 0.276139 -2.93872
LeftToes  1.648e-009 -9.21574e-011 2.55256e-011
202
root  -27.207 39.3649 -13.4568 -6.43353 83.0573 -1.59009
RightUpLeg  9.61978 -7.8726 2.04235
RightLeg  13.83 8.13698 2.69413
RightFoot  -16.0661 -0.251062 -3.47337
RightToes  -8.14909e-010 0 -3.6325e-017
Spine  5.48175 3.70997 11.8235
Spine1  7.16851 5.96108 -6.24217
HEad  -2.89504 -14.7084 -2.41669
LeftShoulder1  -0.626897 5.30688 -28.5761
LeftArm  -8.45835 26.1764 -30.1
LeftForeArm  31.6836 -6.34133 -4.95981
LeftHand  -0.113126 8.65354 -2.21802
RightShoulder  -0.695862 -5.95951 21.5347
RightArm  -8.45705 11.6324 27.886
RightForeArm  40.5245 29.0866 4.11089
RightHand  0.121301 1.018 2.26681
LeftUpLeg  -19.5571 0.356336 2.32414
LeftLeg  17.1286 -4.0215 -1.03986
LeftFoot  -1.14388 0.336458 -3.69256
LeftToes  1.648e-009 -9.21574e-011 2.55256e-011
